Fungal-Grow 500 Thickness 1000.ufo
<glyph name="L" format="1">
  <advance width="1141"/>
  <unicode hex="004C"/>
  <outline>
    <contour>
      <point x="201" y="1493" type="line"/>
      <point x="403" y="1493" type="line"/>
      <point x="403" y="170" type="line"/>
      <point x="1130" y="170" type="line"/>
      <point x="1130" y="0" type="line"/>
      <point x="201" y="0" type="line"/>
      <point x="201" y="1493" type="line"/>
    </contour>
    <component base="blob1" xScale="0" xyScale="-1.2886" yScale="0" yxScale="1.2886" xOffset="1221" yOffset="62"/>
    <component base="blob2" xScale="0" xyScale="-1" yScale="0" yxScale="1" xOffset="1710" yOffset="196"/>
    <component base="blob3" xScale="0" xyScale="-1" yScale="0" yxScale="1" xOffset="2124" yOffset="422"/>
    <component base="blob4" xScale="0" xyScale="-0.8783" yScale="0" yxScale="0.8783" xOffset="2559" yOffset="507"/>
    <component base="blob5" xScale="0" xyScale="-1" yScale="0" yxScale="1" xOffset="2994" yOffset="635"/>
    <component base="blob6" xScale="0" xyScale="-1.1539" yScale="0" yxScale="1.1539" xOffset="3341" yOffset="1032"/>
    <component base="blob7" xScale="0" xyScale="-0.9753" yScale="0" yxScale="0.9753" xOffset="3651" yOffset="1449"/>
    <component base="blob8" xScale="0" xyScale="-0.7047" yScale="0" yxScale="0.7047" xOffset="3857" yOffset="1795"/>
    <component base="blob9" xScale="0" xyScale="-0.4869" yScale="0" yxScale="0.4869" xOffset="3827" yOffset="2073"/>
    <component base="blob2" xScale="0" xyScale="-1" yScale="0" yxScale="1" xOffset="707" yOffset="69"/>
    <component base="blob3" xScale="0" xyScale="-0.9349" yScale="0" yxScale="0.9349" xOffset="266" yOffset="132"/>
    <component base="blob4" xScale="0" xyScale="-0.8783" yScale="0" yxScale="0.8783" xOffset="247" yOffset="537"/>
    <component base="blob5" xScale="0" xyScale="-0.8571" yScale="0" yxScale="0.8571" xOffset="444" yOffset="781"/>
    <component base="blob6" xScale="0" xyScale="-0.7728" yScale="0" yxScale="0.7728" xOffset="785" yOffset="736"/>
    <contour>
      <point x="298" y="1520" type="move" name="above"/>
    </contour>
    <contour>
      <point x="665" y="0" type="move" name="below"/>
    </contour>
    <contour>
      <point x="0" y="1520" type="move" name="half"/>
    </contour>
  </outline>
</glyph>
<glyph name="uni0290" format="1">
  <advance width="1075"/>
  <unicode hex="0290"/>
  <outline>
    <contour>
      <point x="113" y="1120" type="line"/>
      <point x="987" y="1120" type="line"/>
      <point x="987" y="952" type="line"/>
      <point x="295" y="147" type="line"/>
      <point x="987" y="147" type="line"/>
      <point x="987" y="-20" type="line" smooth="yes"/>
      <point x="987" y="-173"/>
      <point x="1063" y="-270"/>
      <point x="1168" y="-270" type="qcurve" smooth="yes"/>
      <point x="1215" y="-270" type="line"/>
      <point x="1215" y="-426" type="line"/>
      <point x="1145" y="-426" type="line" smooth="yes"/>
      <point x="964" y="-426"/>
      <point x="801" y="-234"/>
      <point x="801" y="-20" type="qcurve" smooth="yes"/>
      <point x="801" y="0" type="line"/>
      <point x="88" y="0" type="line"/>
      <point x="88" y="168" type="line"/>
      <point x="780" y="973" type="line"/>
      <point x="113" y="973" type="line"/>
    </contour>
    <contour>
      <point x="535" y="1147" type="move" name="above"/>
    </contour>
    <contour>
      <point x="535" y="-430" type="move" name="below"/>
    </contour>
  </outline>
</glyph>
<glyph name="uni041D" format="1">
  <advance width="1540"/>
  <unicode hex="041D"/>
  <outline>
    <component base="H"/>
    <contour>
      <point x="770" y="1520" type="move" name="above"/>
    </contour>
  </outline>
</glyph>
<glyph name="uni0445" format="1">
  <advance width="1212"/>
  <unicode hex="0445"/>
  <outline>
    <component base="x"/>
    <contour>
      <point x="610" y="1147" type="move" name="above"/>
    </contour>
  </outline>
</glyph>
<glyph name="uni067D" format="1">
  <advance width="1928"/>
  <unicode hex="067D"/>
  <outline>
    <component base="uni066E"/>
    <component base="arabic_3dots_a" xOffset="700" yOffset="800"/>
    <contour>
      <point x="900" y="1000" type="move" name="rtl-above"/>
    </contour>
    <contour>
      <point x="900" y="-150" type="move" name="rtl-below"/>
    </contour>
  </outline>
</glyph>
<glyph name="uni0697" format="1">
  <advance width="989"/>
  <unicode hex="0697"/>
  <outline>
    <component base="uni0631"/>
    <component base="arabic_2dots" xOffset="500" yOffset="800"/>
    <contour>
      <point x="700" y="1000" type="move" name="rtl-above"/>
    </contour>
    <contour>
      <point x="500" y="-500" type="move" name="rtl-below"/>
    </contour>
  </outline>
</glyph>
<glyph name="uni07EF" format="1">
  <advance width="0"/>
  <unicode hex="07EF"/>
  <outline>
    <contour>
      <point x="933" y="1262" type="line"/>
      <point x="91" y="1262" type="line"/>
      <point x="91" y="1410" type="line"/>
      <point x="726" y="1408" type="line"/>
      <point x="490" y="1638" type="line"/>
      <point x="672" y="1638" type="line"/>
      <point x="933" y="1410" type="line"/>
    </contour>
    <contour>
      <point x="512" y="1147" type="move" name="_rtl-above"/>
    </contour>
  </outline>
</glyph>
<glyph name="uni1D20" format="1">
  <advance width="1212"/>
  <unicode hex="1D20"/>
  <outline>
    <component base="v"/>
    <contour>
      <point x="606" y="1147" type="move" name="above"/>
    </contour>
    <contour>
      <point x="606" y="0" type="move" name="below"/>
    </contour>
  </outline>
</glyph>
<glyph name="uni1D26" format="1">
  <advance width="1194"/>
  <unicode hex="1D26"/>
  <outline>
    <contour>
      <point x="179" y="0" type="line"/>
      <point x="179" y="1147" type="line"/>
      <point x="1020" y="1147" type="line"/>
      <point x="1020" y="977" type="line"/>
      <point x="381" y="977" type="line"/>
      <point x="381" y="0" type="line"/>
    </contour>
    <contour>
      <point x="280" y="1147" type="move" name="above"/>
    </contour>
    <contour>
      <point x="600" y="0" type="move" name="below"/>
    </contour>
  </outline>
</glyph>
<glyph name="uni2115" format="1">
  <advance width="1640"/>
  <unicode hex="2115"/>
  <outline>
    <contour>
      <point x="1311.5" y="100" type="line"/>
      <point x="566.5" y="1393" type="line"/>
      <point x="328.5" y="1393" type="line"/>
      <point x="1073.5" y="100" type="line"/>
    </contour>
    <contour>
      <point x="198.5" y="1493" type="line"/>
      <point x="621.5" y="1493" type="line"/>
      <point x="1341.5" y="244" type="line"/>
      <point x="1341.5" y="1493" type="line"/>
      <point x="1441.5" y="1493" type="line"/>
      <point x="1441.5" y="0" type="line"/>
      <point x="1018.5" y="0" type="line"/>
      <point x="298.5" y="1249" type="line"/>
      <point x="298.5" y="0" type="line"/>
      <point x="198.5" y="0" type="line"/>
    </contour>
    <contour>
      <point x="820" y="1506" type="move" name="above"/>
    </contour>
    <contour>
      <point x="820" y="0" type="move" name="below"/>
    </contour>
  </outline>
</glyph>
<glyph name="uni2C6F" format="1">
  <advance width="1401"/>
  <unicode hex="2C6F"/>
  <outline>
    <contour>
      <point x="700" y="199" type="line"/>
      <point x="974" y="942" type="line"/>
      <point x="425" y="942" type="line"/>
    </contour>
    <contour>
      <point x="814" y="0" type="line"/>
      <point x="585" y="0" type="line"/>
      <point x="16" y="1493" type="line"/>
      <point x="226" y="1493" type="line"/>
      <point x="362" y="1110" type="line"/>
      <point x="1035" y="1110" type="line"/>
      <point x="1171" y="1493" type="line"/>
      <point x="1384" y="1493" type="line"/>
    </contour>
    <contour>
      <point x="700" y="1520" type="move" name="above"/>
    </contour>
    <contour>
      <point x="700" y="0" type="move" name="below"/>
    </contour>
    <contour>
      <point x="0" y="1520" type="move" name="half"/>
    </contour>
  </outline>
</glyph>
<glyph name="uni2C7B" format="1">
  <advance width="1005"/>
  <unicode hex="2C7B"/>
  <outline>
    <contour>
      <point x="819" y="1120" type="line"/>
      <point x="819" y="0" type="line"/>
      <point x="98" y="0" type="line"/>
      <point x="98" y="147" type="line"/>
      <point x="633" y="147" type="line"/>
      <point x="633" y="523" type="line"/>
      <point x="134" y="523" type="line"/>
      <point x="134" y="671" type="line"/>
      <point x="633" y="671" type="line"/>
      <point x="633" y="972" type="line"/>
      <point x="111" y="972" type="line"/>
      <point x="111" y="1120" type="line"/>
    </contour>
    <contour>
      <point x="468" y="1147" type="move" name="above"/>
    </contour>
    <contour>
      <point x="468" y="0" type="move" name="below"/>
    </contour>
  </outline>
</glyph>
<glyph name="uniFB55" format="1">
  <advance width="618"/>
  <unicode hex="FB55"/>
  <outline>
    <component base="arabic_2dots_a" xOffset="224" yOffset="-250"/>
    <component base="uni066E.medi"/>
    <contour>
      <point x="299" y="1000" type="move" name="rtl-above"/>
    </contour>
    <contour>
      <point x="299" y="-550" type="move" name="rtl-below"/>
    </contour>
  </outline>
</glyph>
<glyph name="uniFB62" format="1">
  <advance width="1928"/>
  <unicode hex="FB62"/>
  <outline>
    <component base="arabic_4dots" xOffset="700" yOffset="900"/>
    <component base="uni066E"/>
    <contour>
      <point x="900" y="1100" type="move" name="rtl-above"/>
    </contour>
    <contour>
      <point x="900" y="-150" type="move" name="rtl-below"/>
    </contour>
  </outline>
</glyph>
<glyph name="uniFB81" format="1">
  <advance width="1322"/>
  <unicode hex="FB81"/>
  <outline>
    <component base="uniFEA4"/>
    <component base="arabic_4dots" xOffset="400" yOffset="-200"/>
    <contour>
      <point x="600" y="1000" type="move" name="rtl-above"/>
    </contour>
    <contour>
      <point x="600" y="-500" type="move" name="rtl-below"/>
    </contour>
  </outline>
</glyph>
<glyph name="uniFBFC" format="1">
  <advance width="1603"/>
  <unicode hex="FBFC"/>
  <outline>
    <component base="uni0649"/>
    <contour>
      <point x="500" y="750" type="move" name="rtl-above"/>
    </contour>
    <contour>
      <point x="700" y="-400" type="move" name="rtl-below"/>
    </contour>
  </outline>
</glyph>
<glyph name="uniFE85" format="1">
  <advance width="989"/>
  <unicode hex="FE85"/>
  <outline>
    <component base="uni0654" xOffset="-62" yOffset="-450"/>
    <component base="uni0648"/>
    <contour>
      <point x="450" y="1250" type="move" name="rtl-above"/>
    </contour>
    <contour>
      <point x="500" y="-500" type="move" name="rtl-below"/>
    </contour>
  </outline>
</glyph>
<glyph name="uniFEC8" format="1">
  <advance width="1680"/>
  <unicode hex="FEC8"/>
  <outline>
    <component base="uniFEC4"/>
    <component base="arabic_dot" xOffset="711" yOffset="850"/>
    <contour>
      <point x="339" y="1650" type="move" name="rtl-above"/>
    </contour>
    <contour>
      <point x="339" y="-150" type="move" name="rtl-below"/>
    </contour>
  </outline>
</glyph>
<glyph name="u1D543" format="1">
  <advance width="1341"/>
  <unicode hex="1D543"/>
  <outline>
    <contour>
      <point x="201" y="1493" type="line"/>
      <point x="603" y="1493" type="line"/>
      <point x="603" y="100" type="line"/>
      <point x="1330" y="100" type="line"/>
      <point x="1330" y="0" type="line"/>
      <point x="201" y="0" type="line"/>
    </contour>
    <contour>
      <point x="301" y="1391" type="line"/>
      <point x="301" y="98" type="line"/>
      <point x="503" y="98" type="line"/>
      <point x="503" y="1391" type="line"/>
    </contour>
    <contour>
      <point x="756" y="1520" type="move" name="above"/>
    </contour>
    <contour>
      <point x="756" y="0" type="move" name="below"/>
    </contour>
  </outline>
</glyph>
<glyph name="blob6" format="1">
  <advance width="44"/>
  <outline>
    <contour>
      <point x="22" y="0" type="curve" smooth="yes"/>
      <point x="24" y="0"/>
      <point x="22" y="-2"/>
      <point x="22" y="0" type="curve" smooth="yes"/>
      <point x="22" y="2"/>
      <point x="24" y="0"/>
      <point x="22" y="0" type="curve" smooth="yes"/>
      <point x="20" y="0"/>
      <point x="22" y="2"/>
      <point x="22" y="0" type="curve" smooth="yes"/>
      <point x="22" y="-2"/>
      <point x="20" y="0"/>
    </contour>
  </outline>
</glyph>
<glyph name="uni06A5.fina" format="1">
  <advance width="2120"/>
  <outline>
    <component base="uni06A1.fina"/>
    <component base="arabic_3dots_a" xOffset="750" yOffset="-350"/>
    <contour>
      <point x="700" y="1100" type="move" name="rtl-above"/>
    </contour>
    <contour>
      <point x="950" y="-650" type="move" name="rtl-below"/>
    </contour>
  </outline>
</glyph>
